<?xml version="1.0" encoding="UTF-8" standalone="no"?>
<svg
   xmlns:dc="http://purl.org/dc/elements/1.1/"
   xmlns:cc="http://creativecommons.org/ns#"
   xmlns:rdf="http://www.w3.org/1999/02/22-rdf-syntax-ns#"
   xmlns:svg="http://www.w3.org/2000/svg"
   xmlns="http://www.w3.org/2000/svg"
   xmlns:xlink="http://www.w3.org/1999/xlink"
   xmlns:sodipodi="http://sodipodi.sourceforge.net/DTD/sodipodi-0.dtd"
   xmlns:inkscape="http://www.inkscape.org/namespaces/inkscape"
   version="1.1"
   viewBox="0 0 48 48"
   id="svg23"
   sodipodi:docname="qalculate-edit.svg"
   inkscape:version="1.0.2 (e86c870879, 2021-01-15, custom)">
  <metadata
     id="metadata27">
    <rdf:RDF>
      <cc:Work
         rdf:about="">
        <dc:format>image/svg+xml</dc:format>
        <dc:type
           rdf:resource="http://purl.org/dc/dcmitype/StillImage" />
        <dc:title />
      </cc:Work>
    </rdf:RDF>
  </metadata>
  <sodipodi:namedview
     pagecolor="#ffffff"
     bordercolor="#666666"
     borderopacity="1"
     objecttolerance="10"
     gridtolerance="10"
     guidetolerance="10"
     inkscape:pageopacity="0"
     inkscape:pageshadow="2"
     inkscape:window-width="1920"
     inkscape:window-height="1050"
     id="namedview25"
     showgrid="true"
     inkscape:zoom="5.0548493"
     inkscape:cx="36.661692"
     inkscape:cy="44.112559"
     inkscape:window-x="0"
     inkscape:window-y="0"
     inkscape:window-maximized="1"
     inkscape:current-layer="svg23"
     inkscape:document-rotation="0"
     showguides="true"
     inkscape:guide-bbox="true">
    <inkscape:grid
       type="xygrid"
       id="grid852" />
  </sodipodi:namedview>
  <defs
     id="defs7">
    <linearGradient
       inkscape:collect="always"
       id="linearGradient863">
      <stop
         style="stop-color:#d4279f;stop-opacity:1;"
         offset="0"
         id="stop859" />
      <stop
         style="stop-color:#fa3da3;stop-opacity:1"
         offset="1"
         id="stop861" />
    </linearGradient>
    <linearGradient
       inkscape:collect="always"
       id="linearGradient855">
      <stop
         style="stop-color:#000000;stop-opacity:0.102"
         offset="0"
         id="stop851" />
      <stop
         style="stop-color:#000000;stop-opacity:0.00074403"
         offset="1"
         id="stop853" />
    </linearGradient>
    <linearGradient
       id="bg"
       x2="0"
       y1="1"
       y2="47"
       gradientUnits="userSpaceOnUse">
      <stop
         style="stop-color:#601a1a"
         offset="0"
         id="stop2" />
      <stop
         style="stop-color:#501616"
         offset="1"
         id="stop4" />
    </linearGradient>
    <linearGradient
       id="bg-3"
       x2="0"
       y1="1"
       y2="47"
       gradientUnits="userSpaceOnUse">
      <stop
         style="stop-color:#601a1a"
         offset="0"
         id="stop2-6" />
      <stop
         style="stop-color:#501616"
         offset="1"
         id="stop4-7" />
    </linearGradient>
    <linearGradient
       id="bg-5"
       x2="0"
       y1="1"
       y2="47"
       gradientUnits="userSpaceOnUse">
      <stop
         style="stop-color:#601a1a"
         offset="0"
         id="stop2-3" />
      <stop
         style="stop-color:#501616"
         offset="1"
         id="stop4-5" />
    </linearGradient>
    <linearGradient
       inkscape:collect="always"
       xlink:href="#linearGradient855"
       id="linearGradient857"
       x1="24"
       y1="24"
       x2="27"
       y2="24"
       gradientUnits="userSpaceOnUse" />
    <linearGradient
       inkscape:collect="always"
       xlink:href="#linearGradient863"
       id="linearGradient865"
       x1="35"
       y1="1"
       x2="35"
       y2="47"
       gradientUnits="userSpaceOnUse" />
    <linearGradient
       id="bg-36"
       x2="0"
       y1="1"
       y2="47"
       gradientUnits="userSpaceOnUse"
       gradientTransform="translate(-6)">
      <stop
         style="stop-color:#601a1a"
         offset="0"
         id="stop2-7" />
      <stop
         style="stop-color:#501616"
         offset="1"
         id="stop4-53" />
    </linearGradient>
  </defs>
  <path
     id="rect855"
     style="fill:#5e5e5e;fill-opacity:1;fill-rule:evenodd;stroke-width:0.961635"
     d="m 1,22 v 21 c 0,2.216 1.784,4 4,4 H 24 V 22 Z" />
  <path
     id="rect865"
     style="fill:url(#linearGradient865);fill-opacity:1;fill-rule:evenodd"
     d="M 24 1 L 24 47 L 43 47 C 45.216 47 47 45.216 47 43 L 47 5 C 47 2.784 45.216 1 43 1 L 24 1 z " />
  <rect
     style="fill:url(#linearGradient857);fill-rule:evenodd;fill-opacity:1"
     id="rect849"
     width="3"
     height="46"
     x="24"
     y="1" />
  <path
     id="rect854"
     style="fill:#4d4d4d;fill-opacity:1;fill-rule:evenodd;stroke-width:0.978019"
     d="M 5,1 C 2.784,1 1,2.7064348 1,4.826087 V 23 H 24 V 1 Z" />
  <path
     d="m1 43v0.25c0 2.216 1.784 4 4 4h38c2.216 0 4-1.784 4-4v-0.25c0 2.216-1.784 4-4 4h-38c-2.216 0-4-1.784-4-4zm0 0.5v0.5c0 2.216 1.784 4 4 4h38c2.216 0 4-1.784 4-4v-0.5c0 2.216-1.784 4-4 4h-38c-2.216 0-4-1.784-4-4z"
     style="opacity:.02"
     id="path9" />
  <path
     d="m1 43.25v0.25c0 2.216 1.784 4 4 4h38c2.216 0 4-1.784 4-4v-0.25c0 2.216-1.784 4-4 4h-38c-2.216 0-4-1.784-4-4z"
     style="opacity:.05"
     id="path11" />
  <path
     d="m1 43v0.25c0 2.216 1.784 4 4 4h38c2.216 0 4-1.784 4-4v-0.25c0 2.216-1.784 4-4 4h-38c-2.216 0-4-1.784-4-4z"
     style="opacity:.1"
     id="path13" />
  <path
     d="m1 39v4c0 2.216 1.784 4 4 4h38c2.216 0 4-1.784 4-4v-4c0 2.216-1.784 4-4 4h-38c-2.216 0-4-1.784-4-4z"
     style="opacity:.1"
     id="path17" />
  <path
     d="m 30,20 v 2.000018 H 40 V 20 Z m 0,5.999982 V 28 h 10 v -2.000018 z"
     color="#000000"
     enable-background="accumulate"
     fill="#ffffff"
     id="path79-7"
     style="fill:#000000;fill-opacity:0.1;stroke-width:0.707004" />
  <path
     d="m 30,19 v 2.000018 H 40 V 19 Z m 0,5.999982 V 27 h 10 v -2.000018 z"
     color="#000000"
     enable-background="accumulate"
     fill="#ffffff"
     id="path79"
     style="fill:#ffffff;stroke-width:0.707004" />
  <path
     id="rect875-6"
     style="fill:#000000;fill-opacity:0.1;fill-rule:evenodd;stroke-width:1.04834"
     d="M 12.996094,28.0011 C 11.54393,27.9654 10.099252,28.65402 9.249132,29.8385 8.388843,31.01627 8.045504,32.51671 8.118805,33.95823 8.062745,35.43674 8.609144,36.91756 9.621094,38 H 8 v 1.99978 h 4 V 38 c -1.353094,-1.03991 -2.106158,-3.18835 -1.93414,-4.88621 0.0861,-1.09639 0.591635,-2.24319 1.549151,-2.83817 0.922587,-0.39453 2.051391,-0.39362 2.934019,0.10015 1.276402,0.97858 1.612389,2.76237 1.296328,4.26973 C 15.61003,35.81015 14.930174,37.26712 14,38 v 1.99978 h 4 V 38 h -1.621094 c 0.933606,-0.99315 1.462249,-2.32623 1.49408,-3.68558 0.03293,-0.99791 0.01161,-2.01976 -0.352002,-2.96627 -0.537437,-1.68273 -2.012589,-3.10435 -3.808869,-3.30084 -0.237262,-0.0317 -0.476695,-0.0462 -0.716021,-0.0462 z"
     sodipodi:nodetypes="ccccccccccccccccccccc" />
  <path
     id="rect875"
     style="fill:#ffffff;fill-rule:evenodd;stroke-width:1.04834"
     d="m 12.996094,27.001323 c -1.452164,-0.0357 -2.896842,0.65292 -3.746962,1.8374 -0.860289,1.17777 -1.203628,2.67821 -1.130327,4.11973 -0.05606,1.47851 0.490339,2.95933 1.502289,4.04177 H 8 v 1.99978 h 4 v -1.99978 c -1.353094,-1.03991 -2.106158,-3.18835 -1.93414,-4.88621 0.0861,-1.09639 0.591635,-2.24319 1.549151,-2.83817 0.922587,-0.39453 2.051391,-0.39362 2.934019,0.10015 1.276402,0.97858 1.612389,2.76237 1.296328,4.26973 -0.235328,1.16465 -0.915184,2.62162 -1.845358,3.3545 v 1.99978 h 4 v -1.99978 h -1.621094 c 0.933606,-0.99315 1.462249,-2.32623 1.49408,-3.68558 0.03293,-0.99791 0.01161,-2.01976 -0.352002,-2.96627 -0.537437,-1.68273 -2.012589,-3.10435 -3.808869,-3.30084 -0.237262,-0.0317 -0.476695,-0.0462 -0.716021,-0.0462 z"
     sodipodi:nodetypes="ccccccccccccccccccccc" />
  <path
     id="rect878-3"
     style="opacity:0.1;fill:#000000;fill-rule:evenodd;stroke-width:1.02693"
     d="m 16.011533,8.000001 c -0.839534,1.258463 -1.679067,2.516927 -2.518602,3.77539 -0.161183,-0.877164 -0.286873,-1.762847 -0.472326,-2.634194 -0.252553,-0.855992 -1.201332,-1.115189 -1.960709,-1.117759 -0.333889,-0.01937 -0.632652,0.0047 -0.965402,-0.01367 -0.07007,0.408204 -0.140128,0.816407 -0.210193,1.22461 0.553221,-0.02648 1.247516,0.02296 1.490081,0.644638 0.19698,0.70067 0.269727,1.435549 0.410919,2.151532 0.106041,0.610261 0.212081,1.220522 0.318122,1.830783 C 10.735615,15.907555 9.367808,17.953779 8,20.000003 c 0.664063,0 1.328125,0 1.992188,0 0.839533,-1.257813 1.679067,-2.515625 2.518601,-3.773438 0.161183,0.877164 0.286873,1.762847 0.472326,2.634195 0.252555,0.855992 1.201333,1.115188 1.96071,1.117759 0.333268,0.0194 0.631407,-0.0047 0.963542,0.01367 0.07007,-0.408203 0.140128,-0.816406 0.210193,-1.224609 -0.552706,0.02655 -1.246013,-0.02375 -1.488222,-0.644638 -0.197,-0.700667 -0.27034,-1.435431 -0.411816,-2.15136 -0.106361,-0.61032 -0.212723,-1.220639 -0.319084,-1.830957 C 15.265626,12.09375 16.632812,10.046875 18,8 c -0.662822,0 -1.325645,0 -1.988467,10e-7 z" />
  <path
     id="rect878"
     style="fill:#ffffff;fill-rule:evenodd;stroke-width:1.02693"
     d="M 16.011533,7.000001 C 15.171999,8.258464 14.332466,9.516928 13.492931,10.775391 13.331748,9.898227 13.206058,9.012544 13.020605,8.141197 12.768052,7.285205 11.819273,7.026008 11.059896,7.023438 c -0.333889,-0.01937 -0.632652,0.0047 -0.965402,-0.01367 -0.07007,0.408204 -0.140128,0.816407 -0.210193,1.22461 0.553221,-0.02648 1.247516,0.02296 1.490081,0.644638 0.19698,0.70067 0.269727,1.435549 0.410919,2.151532 0.106041,0.610261 0.212081,1.220522 0.318122,1.830783 C 10.735615,14.907555 9.367808,16.953779 8,19.000003 c 0.664063,0 1.328125,0 1.992188,0 0.839533,-1.257813 1.679067,-2.515625 2.518601,-3.773438 0.161183,0.877164 0.286873,1.762847 0.472326,2.634195 0.252555,0.855992 1.201333,1.115188 1.96071,1.117759 0.333268,0.0194 0.631407,-0.0047 0.963542,0.01367 0.07007,-0.408203 0.140128,-0.816406 0.210193,-1.224609 -0.552706,0.02655 -1.246013,-0.02375 -1.488222,-0.644638 -0.197,-0.700667 -0.27034,-1.435431 -0.411816,-2.15136 -0.106361,-0.61032 -0.212723,-1.220639 -0.319084,-1.830957 C 15.265626,11.09375 16.632812,9.046875 18,7 c -0.662822,0 -1.325645,0 -1.988467,1e-6 z" />
</svg>
