<?xml version="1.0" encoding="UTF-8" standalone="no"?>
<svg
   xmlns:dc="http://purl.org/dc/elements/1.1/"
   xmlns:cc="http://creativecommons.org/ns#"
   xmlns:rdf="http://www.w3.org/1999/02/22-rdf-syntax-ns#"
   xmlns:svg="http://www.w3.org/2000/svg"
   xmlns="http://www.w3.org/2000/svg"
   xmlns:xlink="http://www.w3.org/1999/xlink"
   xmlns:sodipodi="http://sodipodi.sourceforge.net/DTD/sodipodi-0.dtd"
   xmlns:inkscape="http://www.inkscape.org/namespaces/inkscape"
   version="1.1"
   viewBox="0 0 48 48"
   id="svg23"
   sodipodi:docname="qalculate-edit.svg"
   inkscape:version="1.0.2 (e86c870879, 2021-01-15, custom)">
  <metadata
     id="metadata27">
    <rdf:RDF>
      <cc:Work
         rdf:about="">
        <dc:format>image/svg+xml</dc:format>
        <dc:type
           rdf:resource="http://purl.org/dc/dcmitype/StillImage" />
      </cc:Work>
    </rdf:RDF>
  </metadata>
  <sodipodi:namedview
     pagecolor="#ffffff"
     bordercolor="#666666"
     borderopacity="1"
     objecttolerance="10"
     gridtolerance="10"
     guidetolerance="10"
     inkscape:pageopacity="0"
     inkscape:pageshadow="2"
     inkscape:window-width="1920"
     inkscape:window-height="1050"
     id="namedview25"
     showgrid="true"
     inkscape:zoom="10.674412"
     inkscape:cx="24.537359"
     inkscape:cy="28.886795"
     inkscape:window-x="0"
     inkscape:window-y="0"
     inkscape:window-maximized="1"
     inkscape:current-layer="svg23"
     inkscape:document-rotation="0"
     showguides="true"
     inkscape:guide-bbox="true">
    <inkscape:grid
       type="xygrid"
       id="grid852" />
  </sodipodi:namedview>
  <defs
     id="defs7">
    <linearGradient
       inkscape:collect="always"
       id="linearGradient925">
      <stop
         style="stop-color:#000000;stop-opacity:0.102"
         offset="0"
         id="stop921" />
      <stop
         style="stop-color:#000000;stop-opacity:0"
         offset="1"
         id="stop923" />
    </linearGradient>
    <linearGradient
       id="bg"
       x2="0"
       y1="1"
       y2="47"
       gradientUnits="userSpaceOnUse">
      <stop
         style="stop-color:#601a1a"
         offset="0"
         id="stop2" />
      <stop
         style="stop-color:#501616"
         offset="1"
         id="stop4" />
    </linearGradient>
    <linearGradient
       inkscape:collect="always"
       xlink:href="#linearGradient847"
       id="linearGradient849"
       x1="35"
       y1="47"
       x2="35"
       y2="1"
       gradientUnits="userSpaceOnUse" />
    <linearGradient
       inkscape:collect="always"
       id="linearGradient847">
      <stop
         style="stop-color:#fa3da3;stop-opacity:1"
         offset="0"
         id="stop843" />
      <stop
         style="stop-color:#d4279f;stop-opacity:1"
         offset="1"
         id="stop845" />
    </linearGradient>
    <linearGradient
       inkscape:collect="always"
       xlink:href="#linearGradient925"
       id="linearGradient927"
       x1="24"
       y1="24"
       x2="27"
       y2="24"
       gradientUnits="userSpaceOnUse" />
  </defs>
  <path
     id="rect855"
     style="fill:#5e5e5e;fill-opacity:1;fill-rule:evenodd;stroke-width:0.942207"
     d="M 1.0214844 23 A 23 23 0 0 0 1 24 A 23 23 0 0 0 24 47 L 24 23 L 1.0214844 23 z " />
  <path
     id="rect854"
     style="fill:#4d4d4d;fill-rule:evenodd;fill-opacity:1"
     d="M 24 1 A 23 23 0 0 0 1 24 L 24 24 L 24 1 z " />
  <path
     id="rect865"
     style="fill:url(#linearGradient849);fill-opacity:1;fill-rule:evenodd"
     d="M 24,1 V 47 A 23,23 0 0 0 47,24 23,23 0 0 0 24,1 Z" />
  <path
     d="m36.31 5c5.859 4.062 9.688 10.831 9.688 18.5 0 12.426-10.07 22.5-22.5 22.5-7.669 0-14.438-3.828-18.5-9.688 1.037 1.822 2.306 3.499 3.781 4.969 4.085 3.712 9.514 5.969 15.469 5.969 12.703 0 23-10.298 23-23 0-5.954-2.256-11.384-5.969-15.469-1.469-1.475-3.147-2.744-4.969-3.781zm4.969 3.781c3.854 4.113 6.219 9.637 6.219 15.719 0 12.703-10.297 23-23 23-6.081 0-11.606-2.364-15.719-6.219 4.16 4.144 9.883 6.719 16.219 6.719 12.703 0 23-10.298 23-23 0-6.335-2.575-12.06-6.719-16.219z"
     style="opacity:.05"
     id="path9" />
  <path
     d="m41.28 8.781c3.712 4.085 5.969 9.514 5.969 15.469 0 12.703-10.297 23-23 23-5.954 0-11.384-2.256-15.469-5.969 4.113 3.854 9.637 6.219 15.719 6.219 12.703 0 23-10.298 23-23 0-6.081-2.364-11.606-6.219-15.719z"
     style="opacity:.1"
     id="path11" />
  <path
     d="m31.25 2.375c8.615 3.154 14.75 11.417 14.75 21.13 0 12.426-10.07 22.5-22.5 22.5-9.708 0-17.971-6.135-21.12-14.75a23 23 0 0 0 44.875-7 23 23 0 0 0-16-21.875z"
     style="opacity:.2"
     id="path13" />
  <path
     d="m40.03 7.531c3.712 4.084 5.969 9.514 5.969 15.469 0 12.703-10.297 23-23 23-5.954 0-11.384-2.256-15.469-5.969 4.178 4.291 10.01 6.969 16.469 6.969 12.703 0 23-10.298 23-23 0-6.462-2.677-12.291-6.969-16.469z"
     style="opacity:.1"
     id="path17" />
  <path
     d="m 30,21 v 2.000018 H 40 V 21 Z m 0,5.999982 V 29 h 10 v -2.000018 z"
     color="#000000"
     enable-background="accumulate"
     fill="#ffffff"
     id="path79-7"
     style="opacity:0.1;fill:#000000;stroke-width:0.707004" />
  <path
     d="m 29,20 v 2.000018 H 39 V 20 Z m 0,5.999982 V 28 h 10 v -2.000018 z"
     color="#000000"
     enable-background="accumulate"
     fill="#ffffff"
     id="path79"
     style="fill:#ffffff;stroke-width:0.707004" />
  <path
     id="rect875-6"
     style="fill:#000000;fill-rule:evenodd;stroke-width:1.04834;opacity:0.1"
     d="m 15.996094,28.001325 c -1.452164,-0.03572 -2.896842,0.652911 -3.746962,1.837399 -0.860289,1.177771 -1.203628,2.678211 -1.130327,4.119731 -0.05606,1.478505 0.490339,2.959323 1.502289,4.04177 H 11 v 1.999776 h 4 v -1.99978 c -1.353094,-1.03991 -2.106158,-3.188348 -1.93414,-4.886214 0.0861,-1.096386 0.591635,-2.243191 1.549151,-2.838163 0.922587,-0.394537 2.051391,-0.393626 2.934019,0.10015 1.276402,0.978576 1.612389,2.762369 1.296328,4.269726 C 18.61003,35.810366 17.930174,37.267342 17,38.000221 v 1.99978 h 4 v -1.99978 h -1.621094 c 0.933606,-0.993152 1.462249,-2.32623 1.49408,-3.685583 0.03293,-0.997908 0.01161,-2.019755 -0.352002,-2.966267 -0.537437,-1.682731 -2.012589,-3.104351 -3.808869,-3.300844 -0.237262,-0.03165 -0.476695,-0.04621 -0.716021,-0.0462 z"
     sodipodi:nodetypes="ccccccccccccccccccccc" />
  <path
     id="rect875"
     style="fill:#ffffff;fill-rule:evenodd;stroke-width:1.04834"
     d="m 14.996094,27.001325 c -1.452164,-0.03572 -2.896842,0.652911 -3.746962,1.837399 -0.860289,1.177771 -1.203628,2.678211 -1.130327,4.119731 -0.05606,1.478505 0.490339,2.959323 1.502289,4.04177 H 10 v 1.999776 h 4 v -1.99978 c -1.353094,-1.03991 -2.106158,-3.188348 -1.93414,-4.886214 0.0861,-1.096386 0.591635,-2.243191 1.549151,-2.838163 0.922587,-0.394537 2.051391,-0.393626 2.934019,0.10015 1.276402,0.978576 1.612389,2.762369 1.296328,4.269726 C 17.61003,34.810366 16.930174,36.267342 16,37.000221 v 1.99978 h 4 v -1.99978 h -1.621094 c 0.933606,-0.993152 1.462249,-2.32623 1.49408,-3.685583 0.03293,-0.997908 0.01161,-2.019755 -0.352002,-2.966267 -0.537437,-1.682731 -2.012589,-3.104351 -3.808869,-3.300844 -0.237262,-0.03165 -0.476695,-0.04621 -0.716021,-0.0462 z"
     sodipodi:nodetypes="ccccccccccccccccccccc" />
  <path
     id="rect878-3"
     style="fill:#000000;fill-rule:evenodd;stroke-width:1.02693;opacity:0.1"
     d="m 19.011533,10.000001 c -0.839534,1.258463 -1.679067,2.516927 -2.518602,3.77539 -0.161183,-0.877164 -0.286873,-1.762847 -0.472326,-2.634194 -0.252553,-0.855992 -1.201332,-1.115189 -1.960709,-1.117759 -0.333889,-0.01937 -0.632652,0.0047 -0.965402,-0.01367 -0.07007,0.408203 -0.140128,0.816406 -0.210193,1.224609 0.553221,-0.02648 1.247516,0.02296 1.490081,0.644638 0.19698,0.70067 0.269727,1.435549 0.410919,2.151532 0.106041,0.610261 0.212081,1.220522 0.318122,1.830783 -1.367808,2.046224 -2.735615,4.092448 -4.103423,6.138672 0.664063,0 1.328125,0 1.992188,0 0.839533,-1.257813 1.679067,-2.515625 2.518601,-3.773438 0.161183,0.877164 0.286873,1.762847 0.472326,2.634195 0.252555,0.855992 1.201333,1.115188 1.96071,1.117759 0.333268,0.0194 0.631407,-0.0047 0.963542,0.01367 0.07007,-0.408203 0.140128,-0.816406 0.210193,-1.224609 -0.552706,0.02655 -1.246013,-0.02375 -1.488222,-0.644638 -0.197,-0.700667 -0.27034,-1.435431 -0.411816,-2.15136 C 17.111161,17.361262 17.004799,16.750943 16.898438,16.140625 18.265626,14.09375 19.632812,12.046875 21,10 c -0.662822,0 -1.325645,0 -1.988467,10e-7 z" />
  <path
     id="rect878"
     style="fill:#ffffff;fill-rule:evenodd;stroke-width:1.02693"
     d="m 18.011533,9.000001 c -0.839534,1.258463 -1.679067,2.516927 -2.518602,3.77539 -0.161183,-0.877164 -0.286873,-1.762847 -0.472326,-2.634194 -0.252553,-0.855992 -1.201332,-1.1151887 -1.960709,-1.1177585 -0.333889,-0.019371 -0.632652,0.00475 -0.965402,-0.013672 -0.07007,0.4082032 -0.140128,0.8164063 -0.210193,1.2246095 0.553221,-0.02648 1.247516,0.02296 1.490081,0.644638 0.19698,0.70067 0.269727,1.435549 0.410919,2.151532 0.106041,0.610261 0.212081,1.220522 0.318122,1.830783 -1.367808,2.046224 -2.735615,4.092448 -4.103423,6.138672 0.664063,0 1.328125,0 1.992188,0 0.839533,-1.257813 1.679067,-2.515625 2.518601,-3.773438 0.161183,0.877164 0.286873,1.762847 0.472326,2.634195 0.252555,0.855992 1.201333,1.115188 1.96071,1.117759 0.333268,0.0194 0.631407,-0.0047 0.963542,0.01367 0.07007,-0.408203 0.140128,-0.816406 0.210193,-1.224609 -0.552706,0.02655 -1.246013,-0.02375 -1.488222,-0.644638 -0.197,-0.700667 -0.27034,-1.435431 -0.411816,-2.15136 C 16.111161,16.361262 16.004799,15.750943 15.898438,15.140625 17.265626,13.09375 18.632812,11.046875 20,9 19.337178,9 18.674355,9 18.011533,9 Z" />
  <path
     id="rect916"
     style="fill:url(#linearGradient927);fill-rule:evenodd;fill-opacity:1"
     d="M 24 1 L 24 47 A 23 23 0 0 0 27 46.802734 L 27 1.1972656 A 23 23 0 0 0 24 1 z " />
</svg>
